<svg width="21" height="21" viewBox="0 0 21 21" fill="none" xmlns="http://www.w3.org/2000/svg">
<path fill-rule="evenodd" clip-rule="evenodd" d="M10.4973 0C10.1997 0 9.90822 0.085152 9.6574 0.245405C9.40978 0.40361 9.21195 0.628487 9.08658 0.894069L6.70524 5.7017C6.70056 5.71115 6.69607 5.72069 6.6918 5.73034C6.69073 5.73272 6.68905 5.73481 6.68694 5.73635C6.68482 5.7379 6.68235 5.73887 6.67974 5.73916C6.6706 5.74016 6.66148 5.74135 6.65239 5.7427L1.40902 6.51949C1.11922 6.54767 0.842857 6.65642 0.611384 6.83372C0.371876 7.01719 0.190703 7.26616 0.0898129 7.55048C-0.0110773 7.83481 -0.027357 8.14229 0.0429466 8.43569C0.112978 8.72794 0.265931 8.99372 0.48338 9.2011L4.32154 12.9043L4.33029 12.9126C4.33576 12.9178 4.33989 12.9242 4.34226 12.9313C4.34463 12.9384 4.34518 12.946 4.34386 12.9534L4.34302 12.9583L3.42841 18.3109C3.37816 18.601 3.40998 18.9007 3.52069 19.1734C3.63156 19.4467 3.8169 19.6832 4.05559 19.8563C4.2943 20.0293 4.57678 20.1319 4.8709 20.1523C5.16444 20.1727 5.45781 20.1104 5.71776 19.9727L5.71933 19.9718L10.4436 17.4751C10.4605 17.4677 10.4788 17.4638 10.4973 17.4638C10.5159 17.4638 10.5342 17.4677 10.5511 17.4751L15.2752 19.9718C15.5353 20.11 15.8299 20.1728 16.1236 20.1523C16.4178 20.1319 16.7003 20.0293 16.939 19.8563C17.1777 19.6832 17.3631 19.4467 17.4739 19.1734C17.5847 18.9007 17.6166 18.6025 17.5665 18.3125L17.5662 18.3109L16.6516 12.9583L16.6507 12.9534C16.6494 12.946 16.65 12.9384 16.6524 12.9313C16.6546 12.9242 16.6588 12.9178 16.6642 12.9126L16.6731 12.9043L20.5113 9.20105C20.7286 8.99368 20.8816 8.72792 20.9517 8.43569C21.0219 8.14229 21.0057 7.83481 20.9047 7.55048C20.8039 7.26616 20.6227 7.01719 20.3832 6.83372C20.1517 6.65642 19.8754 6.54767 19.5856 6.51949L14.3422 5.7427C14.3331 5.74135 14.324 5.74016 14.3149 5.73916C14.3123 5.73887 14.3098 5.7379 14.3077 5.73635C14.3055 5.73481 14.3039 5.73272 14.3028 5.73034C14.2985 5.72069 14.2941 5.71115 14.2894 5.7017L11.908 0.894048C11.7826 0.628475 11.5848 0.403605 11.3372 0.245405C11.0864 0.085152 10.7949 0 10.4973 0Z" fill="white"/>
</svg>
