<svg width="36" height="36" viewBox="0 0 36 36" fill="none" xmlns="http://www.w3.org/2000/svg">
<g clip-path="url(#clip0_45_278)">
<path d="M15.581 4.16924L13.136 5.08367C12.9415 5.15501 12.8117 5.34308 12.8117 5.55061C12.8117 5.75814 12.9415 5.94621 13.136 6.01755L15.581 6.93198L16.4954 9.37693C16.5667 9.57149 16.7548 9.7012 16.9623 9.7012C17.1699 9.7012 17.3579 9.57149 17.4293 9.37693L18.3437 6.93198L20.7887 6.01755C20.9832 5.94621 21.1129 5.75814 21.1129 5.55061C21.1129 5.34309 20.9832 5.15501 20.7887 5.08367L18.3437 4.16924L17.4293 1.72429C17.3579 1.52973 17.1699 1.40002 16.9623 1.40002C16.7548 1.40002 16.5667 1.52973 16.4954 1.72429L15.581 4.16924ZM3.3497 27.0429C2.13695 28.2556 2.13695 30.2272 3.3497 31.4464L5.59362 33.6903C6.80637 34.903 8.7779 34.903 9.99713 33.6903L34.7256 8.95539C35.9383 7.74264 35.9383 5.77111 34.7256 4.55187L32.4816 2.31445C31.2689 1.1017 29.2974 1.1017 28.0781 2.31445L3.3497 27.0429ZM31.7877 6.75687L24.9782 13.5664L23.4671 12.0554L30.2766 5.2458L31.7877 6.75687ZM0.846385 9.00079C0.554542 9.11104 0.359985 9.38991 0.359985 9.7012C0.359985 10.0125 0.554542 10.2914 0.846385 10.4016L4.51057 11.7765L5.88545 15.4407C5.9957 15.7325 6.27457 15.9271 6.58587 15.9271C6.89716 15.9271 7.17603 15.7325 7.28628 15.4407L8.66116 11.7765L12.3254 10.4016C12.6172 10.2914 12.8117 10.0125 12.8117 9.7012C12.8117 9.38991 12.6172 9.11104 12.3254 9.00079L8.66116 7.62591L7.28628 3.96171C7.17603 3.66987 6.89716 3.47532 6.58587 3.47532C6.27457 3.47532 5.9957 3.66987 5.88545 3.96171L4.51057 7.62591L0.846385 9.00079ZM23.6746 25.6031C23.3828 25.7134 23.1882 25.9923 23.1882 26.3036C23.1882 26.6148 23.3828 26.8937 23.6746 27.004L27.3388 28.3788L28.7137 32.043C28.8239 32.3349 29.1028 32.5294 29.4141 32.5294C29.7254 32.5294 30.0043 32.3349 30.1145 32.043L31.4894 28.3788L35.1536 27.004C35.4454 26.8937 35.64 26.6148 35.64 26.3036C35.64 25.9923 35.4454 25.7134 35.1536 25.6031L31.4894 24.2283L30.1145 20.5641C30.0043 20.2722 29.7254 20.0777 29.4141 20.0777C29.1028 20.0777 28.8239 20.2722 28.7137 20.5641L27.3388 24.2283L23.6746 25.6031Z" fill="white"/>
</g>
<defs>
<clipPath id="clip0_45_278">
<rect width="36" height="36" fill="white"/>
</clipPath>
</defs>
</svg>
