<svg width="32" height="32" viewBox="0 0 32 32" fill="none" xmlns="http://www.w3.org/2000/svg">
<path d="M18 6.82969V21.9984C18 23.1047 17.1063 23.9984 16 23.9984C14.8938 23.9984 14 23.1047 14 21.9984V6.82969L9.4125 11.4172C8.63125 12.1984 7.3625 12.1984 6.58125 11.4172C5.8 10.6359 5.8 9.36719 6.58125 8.58594L14.5813 0.585938C15.3625 -0.195312 16.6313 -0.195312 17.4125 0.585938L25.4125 8.58594C26.1938 9.36719 26.1938 10.6359 25.4125 11.4172C24.6313 12.1984 23.3625 12.1984 22.5812 11.4172L18 6.82969ZM4 21.9984H12C12 24.2047 13.7937 25.9984 16 25.9984C18.2062 25.9984 20 24.2047 20 21.9984H28C30.2062 21.9984 32 23.7922 32 25.9984V27.9984C32 30.2047 30.2062 31.9984 28 31.9984H4C1.79375 31.9984 0 30.2047 0 27.9984V25.9984C0 23.7922 1.79375 21.9984 4 21.9984ZM27 28.4984C27.3978 28.4984 27.7794 28.3404 28.0607 28.0591C28.342 27.7778 28.5 27.3963 28.5 26.9984C28.5 26.6006 28.342 26.2191 28.0607 25.9378C27.7794 25.6565 27.3978 25.4984 27 25.4984C26.6022 25.4984 26.2206 25.6565 25.9393 25.9378C25.658 26.2191 25.5 26.6006 25.5 26.9984C25.5 27.3963 25.658 27.7778 25.9393 28.0591C26.2206 28.3404 26.6022 28.4984 27 28.4984Z" fill="white"/>
</svg>
