<svg fill="#5D5C5C" version="1.1" id="Capa_1" xmlns="http://www.w3.org/2000/svg" xmlns:xlink="http://www.w3.org/1999/xlink" width="64px" height="64px" viewBox="0 0 981.5 981.5" xml:space="preserve"><g id="SVGRepo_bgCarrier" stroke-width="0"></g><g id="SVGRepo_tracerCarrier" stroke-linecap="round" stroke-linejoin="round"></g><g id="SVGRepo_iconCarrier"> <g> <path d="M921.6,374.1c0-33.1-26.899-60-60-60h-111.7c-33.1,0-60,26.9-60,60V782h231.7V374.1z"></path> <path d="M606.6,225.8c0-33.1-26.899-60-60-60H435c-33.101,0-60,26.9-60,60V782h231.7V225.8H606.6z"></path> <path d="M291.7,781.9V69.6c0-33.1-26.9-60-60-60H120c-33.1,0-60,26.9-60,60v712.3l0,0H291.7z"></path> <path d="M0,911.9c0,33.101,26.9,60,60,60h861.5c33.1,0,60-26.899,60-60c0-33.1-26.9-60-60-60h-9.3h-213H597.399H384.2H282.4H69.3 H60C26.9,851.9,0,878.8,0,911.9z"></path> </g> </g></svg>