<svg width="64px" height="64px" viewBox="0 0 1024 1024" class="icon" version="1.1" xmlns="http://www.w3.org/2000/svg" fill="#5D5C5C" stroke="#5D5C5C"><g id="SVGRepo_bgCarrier" stroke-width="0"></g><g id="SVGRepo_tracerCarrier" stroke-linecap="round" stroke-linejoin="round"></g><g id="SVGRepo_iconCarrier"><path d="M192 832V128H149.333333v746.666667h746.666667v-42.666667z" fill="#b794f4"></path><path d="M832 234.666667m-64 0a64 64 0 1 0 128 0 64 64 0 1 0-128 0Z" fill="#5D5C5C"></path><path d="M661.333333 277.333333m-64 0a64 64 0 1 0 128 0 64 64 0 1 0-128 0Z" fill="#5D5C5C"></path><path d="M789.333333 405.333333m-64 0a64 64 0 1 0 128 0 64 64 0 1 0-128 0Z" fill="#5D5C5C"></path><path d="M725.333333 554.666667m-64 0a64 64 0 1 0 128 0 64 64 0 1 0-128 0Z" fill="#5D5C5C"></path><path d="M597.333333 426.666667m-64 0a64 64 0 1 0 128 0 64 64 0 1 0-128 0Z" fill="#5D5C5C"></path><path d="M554.666667 597.333333m-64 0a64 64 0 1 0 128 0 64 64 0 1 0-128 0Z" fill="#5D5C5C"></path><path d="M426.666667 490.666667m-64 0a64 64 0 1 0 128 0 64 64 0 1 0-128 0Z" fill="#5D5C5C"></path><path d="M448 704m-64 0a64 64 0 1 0 128 0 64 64 0 1 0-128 0Z" fill="#5D5C5C"></path><path d="M298.666667 640m-64 0a64 64 0 1 0 128 0 64 64 0 1 0-128 0Z" fill="#5D5C5C"></path></g></svg>