<svg width="8" height="16" viewBox="0 0 8 16" fill="none" xmlns="http://www.w3.org/2000/svg">
<path d="M1.25693 15.0132C1.0034 15.0136 0.757691 14.9323 0.562468 14.7832C0.452592 14.6993 0.361767 14.5962 0.295194 14.4798C0.228621 14.3635 0.187608 14.2362 0.174505 14.1052C0.161401 13.9742 0.176465 13.8422 0.218832 13.7166C0.261199 13.591 0.330037 13.4743 0.421405 13.3733L5.28266 8.0137L0.595022 2.6441C0.504887 2.54182 0.437576 2.42413 0.396959 2.2978C0.356341 2.17147 0.343218 2.03899 0.358344 1.90797C0.373469 1.77695 0.416544 1.64998 0.485094 1.53435C0.553644 1.41872 0.646318 1.31672 0.757786 1.2342C0.870058 1.14317 1.00153 1.07451 1.14397 1.03253C1.2864 0.99054 1.43671 0.976138 1.58547 0.990221C1.73423 1.00431 1.87823 1.04657 2.00842 1.11437C2.13862 1.18217 2.25219 1.27403 2.34203 1.38419L7.58308 7.38375C7.74267 7.56267 7.82992 7.78709 7.82992 8.0187C7.82992 8.25031 7.74267 8.47473 7.58308 8.65365L2.15757 14.6532C2.04871 14.7742 1.91043 14.8699 1.75395 14.9324C1.59747 14.995 1.42719 15.0226 1.25693 15.0132Z" fill="#000000"/>
</svg>
