<svg width="8" height="16" viewBox="0 0 8 16" fill="none" xmlns="http://www.w3.org/2000/svg">
<path d="M6.74307 0.986946C6.9966 0.98649 7.24231 1.06786 7.43753 1.21693C7.54741 1.30087 7.63823 1.40397 7.7048 1.5203C7.77138 1.63664 7.81239 1.76394 7.82549 1.89491C7.8386 2.02587 7.82353 2.15794 7.78117 2.28353C7.7388 2.40912 7.66996 2.52578 7.57859 2.62682L2.71734 7.98642L7.40498 13.356C7.49511 13.4583 7.56242 13.576 7.60304 13.7023C7.64366 13.8287 7.65678 13.9611 7.64166 14.0922C7.62653 14.2232 7.58346 14.3501 7.51491 14.4658C7.44636 14.5814 7.35368 14.6834 7.24221 14.7659C7.12994 14.8569 6.99847 14.9256 6.85603 14.9676C6.7136 15.0096 6.56329 15.024 6.41453 15.0099C6.26577 14.9958 6.12177 14.9536 5.99158 14.8858C5.86138 14.818 5.74781 14.7261 5.65797 14.6159L0.416924 8.61638C0.257326 8.43746 0.170078 8.21303 0.170078 7.98142C0.170078 7.74982 0.257326 7.52539 0.416924 7.34647L5.84243 1.34692C5.95129 1.22591 6.08956 1.13025 6.24605 1.06771C6.40253 1.00517 6.57281 0.977496 6.74307 0.986946Z" fill="#1877F2"/>
</svg>
