<svg fill="#FFFFFF" height="64px" width="64px" version="1.1" id="Layer_1" xmlns="http://www.w3.org/2000/svg" xmlns:xlink="http://www.w3.org/1999/xlink" viewBox="0 0 512 512" xml:space="preserve" stroke="#FFFFFF"><g id="SVGRepo_bgCarrier" stroke-width="0"></g><g id="SVGRepo_tracerCarrier" stroke-linecap="round" stroke-linejoin="round"></g><g id="SVGRepo_iconCarrier"> <g> <g> <path d="M403.038,116.16c-7.236-27.172-31.674-46.276-60.424-46.276h-2.809v-8.758C339.805,27.421,312.384,0,278.678,0h-45.357 c-33.705,0-61.126,27.421-61.126,61.126v8.758h-2.809c-28.75,0-53.188,19.104-60.424,46.276 c-21.548,2.947-38.206,21.463-38.206,43.807v25.299c0.002,4.516,3.664,8.178,8.18,8.178h17.941l16.938,185.423 c0.387,4.246,3.953,7.434,8.134,7.434c0.25,0,0.5-0.012,0.753-0.034c4.498-0.411,7.811-4.39,7.4-8.888l-16.801-183.936h213.767 c4.516,0,8.178-3.661,8.178-8.178s-3.661-8.178-8.178-8.178H87.114v-17.121c0-15.369,12.503-27.872,27.872-27.872h0.674h47.961 c4.516,0,8.178-3.661,8.178-8.178s-3.661-8.178-8.178-8.178h-37.362c6.724-17.549,23.581-29.5,43.131-29.5h173.228 c19.549,0,36.407,11.95,43.131,29.5H196.331c-4.516,0-8.178,3.661-8.178,8.178s3.661,8.178,8.178,8.178h200.015h0.674 c15.369,0,27.872,12.503,27.872,27.872v17.121h-65.112c-4.516,0-8.178,3.661-8.178,8.178s3.661,8.178,8.178,8.178h38.925 L373.765,466.46c-1.52,16.638-15.265,29.184-31.972,29.184H170.21c-16.707,0-30.452-12.547-31.972-29.184l-5.15-56.37 c-0.411-4.498-4.391-7.807-8.888-7.4c-4.498,0.411-7.811,4.39-7.4,8.888l5.15,56.371C124.245,493.061,144.991,512,170.209,512 h171.582c25.218,0,45.964-18.939,48.259-44.052l25.075-274.505h17.941c4.516,0,8.178-3.661,8.178-8.178v-25.299 C441.244,137.623,424.585,119.107,403.038,116.16z M285.289,69.884h-58.573v-8.758c0-3.644,2.965-6.608,6.608-6.608h45.357 c3.644,0,6.609,2.964,6.609,6.608V69.884z M323.452,69.884h-21.807v-8.758c0-12.661-10.302-22.963-22.964-22.963h-45.357 c-12.662,0-22.963,10.302-22.963,22.963v8.758h-21.807v-8.758c0-24.687,20.083-44.77,44.77-44.77h45.357 c24.687,0,44.772,20.083,44.772,44.77V69.884z"></path> </g> </g> </g></svg>