<svg width="14" height="8" viewBox="0 0 14 8" fill="none" xmlns="http://www.w3.org/2000/svg">
    <path d="M11.9818 0.546192L7.40894 5.01279L2.83605 0.546192C2.72693 0.439613 2.59739 0.35507 2.45483 0.29739C2.31226 0.23971 2.15946 0.210022 2.00515 0.210022C1.85083 0.210022 1.69803 0.23971 1.55547 0.29739C1.4129 0.35507 1.28336 0.439613 1.17425 0.546192C1.06513 0.652771 0.978578 0.779298 0.919525 0.91855C0.860472 1.0578 0.830078 1.20705 0.830078 1.35778C0.830078 1.5085 0.860472 1.65775 0.919525 1.797C0.978578 1.93626 1.06513 2.06278 1.17425 2.16936L6.58393 7.4533C7.04358 7.90226 7.78608 7.90226 8.24573 7.4533L13.6554 2.16936C13.7647 2.06286 13.8513 1.93636 13.9105 1.7971C13.9696 1.65783 14.0001 1.50855 14.0001 1.35778C14.0001 1.20701 13.9696 1.05772 13.9105 0.918457C13.8513 0.779194 13.7647 0.652692 13.6554 0.546192C13.1958 0.108742 12.4415 0.0972298 11.9818 0.546192Z" fill="#393939"/>
</svg>