<svg width="16" height="16" viewBox="0 0 16 16" fill="none" xmlns="http://www.w3.org/2000/svg">
<g clip-path="url(#clip0_107_416)">
<path d="M15.6099 14.5009C16.0369 14.9278 15.8415 15.6569 15.2583 15.8132C14.9876 15.8857 14.6988 15.8083 14.5006 15.6102L7.99966 9.10822L1.49871 15.6102C1.07174 16.0371 0.342668 15.8418 0.186387 15.2585C0.113862 14.9878 0.191249 14.699 0.389406 14.5009L6.89134 7.99991L0.389406 1.49895C-0.0375631 1.07198 0.157787 0.342912 0.741037 0.186631C1.01172 0.114106 1.30054 0.191494 1.49871 0.38965L7.99966 6.89159L14.5006 0.38965C14.9276 -0.037319 15.6567 0.158031 15.8129 0.741281C15.8855 1.01197 15.8081 1.30079 15.6099 1.49895L9.10798 7.99991L15.6099 14.5009Z" fill="black"/>
</g>
<defs>
<clipPath id="clip0_107_416">
<rect width="16" height="16" fill="white"/>
</clipPath>
</defs>
</svg>
