<svg width="22" height="22" viewBox="0 0 22 22" fill="none" xmlns="http://www.w3.org/2000/svg">
<path fill-rule="evenodd" clip-rule="evenodd" d="M22 12C22 12.3978 21.842 12.7794 21.5607 13.0607C21.2794 13.342 20.8978 13.5 20.5 13.5H18.5V5.5C18.5 4.83696 18.2366 4.20107 17.7678 3.73223C17.2989 3.26339 16.663 3 16 3H5V1.5C5 1.10218 5.15804 0.720644 5.43934 0.43934C5.72064 0.158035 6.10218 0 6.5 0H20.5C20.8978 0 21.2794 0.158035 21.5607 0.43934C21.842 0.720644 22 1.10218 22 1.5V12ZM3.5 4.5H1C0.734784 4.5 0.48043 4.60536 0.292893 4.79289C0.105357 4.98043 0 5.23478 0 5.5V20.586C0 21.476 1.077 21.923 1.707 21.293L5 18H16C16.2652 18 16.5196 17.8946 16.7071 17.7071C16.8946 17.5196 17 17.2652 17 17V15H6.5C5.70435 15 4.94129 14.6839 4.37868 14.1213C3.81607 13.5587 3.5 12.7956 3.5 12V4.5ZM17 13.5V5.5C17 5.23478 16.8946 4.98043 16.7071 4.79289C16.5196 4.60536 16.2652 4.5 16 4.5H5V12C5 12.3978 5.15804 12.7794 5.43934 13.0607C5.72064 13.342 6.10218 13.5 6.5 13.5H17Z" fill="white"/>
</svg>
