<svg width="51" height="51" viewBox="0 0 51 51" fill="none" xmlns="http://www.w3.org/2000/svg">
<path d="M25.5 0L27.4158 3.60264L29.928 0.387402L31.1891 4.26798L34.2215 1.53784L34.7896 5.57845L38.25 3.41635L38.1078 7.49422L41.8911 5.96587L41.0429 9.95709L45.0341 9.10892L43.5058 12.8922L47.5836 12.75L45.4216 16.2104L49.4622 16.7785L46.732 19.8109L50.6126 21.072L47.3974 23.5842L51 25.5L47.3974 27.4158L50.6126 29.928L46.732 31.1891L49.4622 34.2215L45.4216 34.7896L47.5836 38.25L43.5058 38.1078L45.0341 41.8911L41.0429 41.0429L41.8911 45.0341L38.1078 43.5058L38.25 47.5836L34.7896 45.4216L34.2215 49.4622L31.1891 46.732L29.928 50.6126L27.4158 47.3974L25.5 51L23.5842 47.3974L21.072 50.6126L19.8109 46.732L16.7785 49.4622L16.2104 45.4216L12.75 47.5836L12.8922 43.5058L9.10892 45.0341L9.95709 41.0429L5.96587 41.8911L7.49422 38.1078L3.41635 38.25L5.57845 34.7896L1.53784 34.2215L4.26798 31.1891L0.387402 29.928L3.60264 27.4158L0 25.5L3.60264 23.5842L0.387402 21.072L4.26798 19.8109L1.53784 16.7785L5.57845 16.2104L3.41635 12.75L7.49422 12.8922L5.96587 9.10892L9.95709 9.95709L9.10892 5.96587L12.8922 7.49422L12.75 3.41635L16.2104 5.57845L16.7785 1.53784L19.8109 4.26798L21.072 0.387402L23.5842 3.60264L25.5 0Z" fill="#FA2C2C"/>
</svg>
