<svg width="7" height="16" viewBox="0 0 7 16" fill="none" xmlns="http://www.w3.org/2000/svg">
<path d="M3.5 0C3.98326 0 4.375 0.391755 4.375 0.875V1.86194C5.50646 2.15331 6.41603 2.99463 6.80094 4.08362C6.96176 4.53917 6.72236 5.03857 6.26684 5.19958C5.81131 5.36048 5.31186 5.12193 5.15086 4.66638C4.91015 3.98556 4.26055 3.5 3.5 3.5C2.53347 3.5 1.75 4.2835 1.75 5.25C1.75 5.89516 1.96193 6.18809 2.22941 6.39415C2.57346 6.65928 3.06521 6.82325 3.75979 7.03929C4.37754 7.23152 5.19855 7.47582 5.83879 7.96898C6.55568 8.52127 7 9.33695 7 10.5C7 12.1308 5.88455 13.5013 4.375 13.8898V14.875C4.375 15.3583 3.98326 15.75 3.5 15.75C3.01674 15.75 2.625 15.3583 2.625 14.875V13.8872C1.49363 13.5957 0.583975 12.7553 0.199098 11.6664C0.0382463 11.2108 0.27762 10.7114 0.733153 10.5504C1.18872 10.3895 1.6881 10.6281 1.84914 11.0836C2.08985 11.7645 2.73945 12.25 3.5 12.25C4.46653 12.25 5.25 11.4665 5.25 10.5C5.25 9.85486 5.03807 9.56191 4.77059 9.35585C4.42654 9.09072 3.93479 8.92675 3.24021 8.71071C2.62246 8.51848 1.80145 8.27417 1.16126 7.78102C0.444334 7.22872 0 6.41305 0 5.25C0 3.61914 1.11542 2.24877 2.625 1.86023V0.875C2.625 0.391755 3.01674 0 3.5 0Z" fill="url(#paint0_linear_107_394)"/>
<defs>
<linearGradient id="paint0_linear_107_394" x1="0" y1="7.875" x2="7" y2="7.875" gradientUnits="userSpaceOnUse">
<stop stop-color="#5345E6"/>
<stop offset="1" stop-color="#8F34E9"/>
</linearGradient>
</defs>
</svg>
