<svg width="20" height="20" viewBox="0 0 20 20" fill="none" xmlns="http://www.w3.org/2000/svg">
<path d="M10 0C15.5228 0 20 4.47715 20 10C20 15.5228 15.5228 20 10 20C4.47715 20 0 15.5228 0 10C0 4.47715 4.47715 0 10 0ZM8.5 9C7.94772 9 7.5 9.4477 7.5 10C7.5 10.5523 7.94772 11 8.5 11H9V13H8.5C7.94772 13 7.5 13.4477 7.5 14C7.5 14.5523 7.94772 15 8.5 15H11.5C12.0523 15 12.5 14.5523 12.5 14C12.5 13.4477 12.0523 13 11.5 13H11V10C11 9.4477 10.5523 9 10 9H8.5ZM9.75 5C9.0596 5 8.5 5.55964 8.5 6.25C8.5 6.94036 9.0596 7.5 9.75 7.5C10.4404 7.5 11 6.94036 11 6.25C11 5.55964 10.4404 5 9.75 5Z" fill="url(#paint0_linear_45_383)"/>
<defs>
<linearGradient id="paint0_linear_45_383" x1="0" y1="10" x2="20" y2="10" gradientUnits="userSpaceOnUse">
<stop stop-color="#B253E9"/>
<stop offset="1" stop-color="#E34AA5"/>
</linearGradient>
</defs>
</svg>
