<svg width="14" height="14" viewBox="0 0 14 14" fill="none" xmlns="http://www.w3.org/2000/svg">
<path fill-rule="evenodd" clip-rule="evenodd" d="M5.81066 1.02512C7.17749 -0.341707 9.39357 -0.341707 10.7604 1.02512C12.1273 2.39196 12.1273 4.60804 10.7604 5.97487L6.69454 10.0407C5.81586 10.9194 4.39124 10.9194 3.51256 10.0407C2.63388 9.16206 2.63388 7.73744 3.51256 6.85876L5.98744 4.38388C6.28033 4.09099 6.7552 4.09099 7.0481 4.38388C7.34099 4.67678 7.34099 5.15165 7.0481 5.44454L4.57322 7.91942C4.28033 8.21231 4.28033 8.68718 4.57322 8.98008C4.86612 9.27297 5.34099 9.27297 5.63388 8.98008L9.69976 4.91421C10.4808 4.13316 10.4808 2.86683 9.69976 2.08579C8.9187 1.30474 7.65237 1.30474 6.87132 2.08579L2.4519 6.5052C1.1827 7.77441 1.1827 9.83221 2.4519 11.1014C3.72111 12.3706 5.77889 12.3706 7.0481 11.1014L11.9979 6.15165C12.2908 5.85876 12.7657 5.85876 13.0585 6.15165C13.3514 6.44454 13.3514 6.91942 13.0585 7.21231L8.10876 12.162C6.25377 14.017 3.24623 14.017 1.39124 12.162C-0.463747 10.3071 -0.463747 7.29953 1.39124 5.44454L5.81066 1.02512Z" fill="white"/>
</svg>
