<svg width="14" height="14" viewBox="0 0 14 14" fill="none" xmlns="http://www.w3.org/2000/svg">
<path d="M6.64996 2.79982H1.39999V12.5997H11.1999V7.34977H12.5999V12.5997C12.5999 13.3729 11.9731 13.9997 11.1999 13.9997H1.39999C0.626853 13.9997 9.09995e-05 13.3729 0 12.5997V2.79982C0 2.02663 0.626797 1.39983 1.39999 1.39983H6.64996V2.79982ZM10.7583 0.157062C11.0333 -0.0671815 11.4386 -0.0513685 11.6948 0.204914L13.7948 2.3049C14.0681 2.57827 14.0682 3.0214 13.7948 3.29474L8.19485 8.89473C8.0636 9.02591 7.88559 9.09975 7.69995 9.09975H5.59997C5.21343 9.09975 4.90006 8.7863 4.89997 8.39976V6.29977L4.90339 6.23075C4.91927 6.07052 4.9902 5.91974 5.10505 5.80487L10.705 0.204914L10.7583 0.157062ZM6.29996 6.58964V7.69976H7.41009L10.355 4.75489L9.24485 3.64474L6.29996 6.58964Z" fill="#6634E9"/>
</svg>
