<svg width="16" height="16" viewBox="0 0 16 16" fill="none" xmlns="http://www.w3.org/2000/svg">
<path fill-rule="evenodd" clip-rule="evenodd" d="M7.89533 0C7.67146 0 7.45227 0.0640454 7.26362 0.184576C7.07738 0.303567 6.92858 0.472703 6.83429 0.672456L5.04321 4.28842C5.03969 4.29553 5.03632 4.3027 5.0331 4.30996C5.0323 4.31175 5.03104 4.31332 5.02945 4.31448C5.02785 4.31564 5.02599 4.31638 5.02403 4.31659C5.01716 4.31735 5.0103 4.31824 5.00346 4.31925L1.05977 4.9035C0.841796 4.9247 0.633938 5.00649 0.45984 5.13985C0.279699 5.27783 0.143434 5.46509 0.067551 5.67894C-0.00833158 5.89279 -0.020576 6.12406 0.0323014 6.34473C0.0849741 6.56454 0.200015 6.76445 0.363565 6.92042L3.25036 9.70573L3.25694 9.71197C3.26106 9.71583 3.26416 9.72064 3.26594 9.726C3.26772 9.73135 3.26814 9.73707 3.26715 9.74262L3.26652 9.74631L2.57861 13.7721C2.54082 13.9903 2.56475 14.2158 2.64802 14.4209C2.7314 14.6264 2.8708 14.8043 3.05033 14.9345C3.22987 15.0646 3.44233 15.1418 3.66355 15.1571C3.88433 15.1725 4.10498 15.1256 4.3005 15.0221L4.30168 15.0214L7.85491 13.1435C7.86764 13.138 7.88142 13.1351 7.89535 13.1351C7.90929 13.1351 7.92305 13.138 7.9358 13.1435L11.489 15.0214C11.6846 15.1253 11.9062 15.1726 12.1271 15.1571C12.3483 15.1418 12.5608 15.0646 12.7404 14.9345C12.9199 14.8043 13.0593 14.6264 13.1427 14.4209C13.2259 14.2158 13.25 13.9915 13.2123 13.7734L13.2121 13.7721L12.5242 9.7463L12.5235 9.74262C12.5225 9.73707 12.523 9.73135 12.5248 9.726C12.5265 9.72065 12.5296 9.71583 12.5337 9.71197L12.5403 9.70573L15.4272 6.92038C15.5906 6.76441 15.7057 6.56453 15.7584 6.34473C15.8112 6.12406 15.799 5.89279 15.7231 5.67894C15.6473 5.46509 15.511 5.27783 15.3308 5.13985C15.1567 5.00649 14.9489 4.9247 14.7309 4.9035L10.7872 4.31925C10.7804 4.31824 10.7735 4.31735 10.7666 4.31659C10.7647 4.31638 10.7628 4.31564 10.7612 4.31448C10.7596 4.31332 10.7584 4.31175 10.7576 4.30996C10.7544 4.3027 10.751 4.29553 10.7475 4.28842L8.95637 0.67244C8.86208 0.472694 8.71328 0.303563 8.52705 0.184576C8.33839 0.0640454 8.1192 0 7.89533 0Z" fill="url(#paint0_linear_107_365)"/>
<defs>
<linearGradient id="paint0_linear_107_365" x1="0" y1="7.58" x2="15.7907" y2="7.58" gradientUnits="userSpaceOnUse">
<stop stop-color="#5345E6"/>
<stop offset="1" stop-color="#8F34E9"/>
</linearGradient>
</defs>
</svg>
