<svg width="32" height="32" viewBox="0 0 32 32" fill="none" xmlns="http://www.w3.org/2000/svg">
<path fill-rule="evenodd" clip-rule="evenodd" d="M16.0002 4C15.4132 4.00003 14.8426 4.19374 14.3769 4.55109C13.9112 4.90844 13.5764 5.40947 13.4245 5.97647C13.2725 6.54347 13.3119 7.14476 13.5366 7.68709C13.7612 8.22941 14.1585 8.68247 14.6668 8.976V10.6667H10.6668C6.40016 10.6667 5.3335 14.2227 5.3335 16V25.3333C5.3335 26.2227 5.86683 28 8.00016 28H9.33349V22.6667C9.33349 22.313 9.47397 21.9739 9.72402 21.7239C9.97407 21.4738 10.3132 21.3333 10.6668 21.3333H21.3335C21.6871 21.3333 22.0263 21.4738 22.2763 21.7239C22.5263 21.9739 22.6668 22.313 22.6668 22.6667V28H24.0002C26.1335 28 26.6668 26.2227 26.6668 25.3333V16C26.6668 11.7333 23.1108 10.6667 21.3335 10.6667H17.3335V8.976C17.8418 8.68247 18.2391 8.22941 18.4637 7.68709C18.6884 7.14476 18.7278 6.54347 18.5758 5.97647C18.4239 5.40947 18.0891 4.90844 17.6234 4.55109C17.1578 4.19374 16.5872 4.00003 16.0002 4ZM20.0002 28V24H17.3335V28H20.0002ZM14.6668 28V24H12.0002V28H14.6668ZM28.0002 24V17.3333C28.8895 17.3333 30.6668 17.8667 30.6668 20V21.3333C30.6668 22.2227 30.1335 24 28.0002 24ZM4.00016 17.3333V24C1.86683 24 1.3335 22.2227 1.3335 21.3333V20C1.3335 17.8667 3.11083 17.3333 4.00016 17.3333ZM12.0002 16C11.6465 16 11.3074 16.1405 11.0574 16.3905C10.8073 16.6406 10.6668 16.9797 10.6668 17.3333C10.6668 17.687 10.8073 18.0261 11.0574 18.2761C11.3074 18.5262 11.6465 18.6667 12.0002 18.6667C12.3538 18.6667 12.6943 18.5262 12.9443 18.2761C13.1944 18.0261 13.3348 17.687 13.3348 17.3333C13.3348 16.9797 13.1944 16.6406 12.9443 16.3905C12.6943 16.1405 12.3538 16 12.0002 16ZM18.6668 17.3333C18.6668 16.9797 18.8073 16.6406 19.0574 16.3905C19.3074 16.1405 19.6465 16 20.0002 16C20.3538 16 20.6943 16.1405 20.9443 16.3905C21.1943 16.6406 21.3348 16.9797 21.3348 17.3333C21.3348 17.687 21.1943 18.0261 20.9443 18.2761C20.6943 18.5262 20.3551 18.6667 20.0015 18.6667C19.6479 18.6667 19.3074 18.5262 19.0574 18.2761C18.8073 18.0261 18.6668 17.687 18.6668 17.3333Z" fill="white"/>
</svg>
