<svg width="11" height="11" viewBox="0 0 11 11" fill="none" xmlns="http://www.w3.org/2000/svg">
<g clip-path="url(#clip0_107_370)">
<path fill-rule="evenodd" clip-rule="evenodd" d="M10.7149 0.941275C10.7945 1.007 10.8603 1.08774 10.9087 1.17891C10.957 1.27008 10.987 1.36988 10.9967 1.47261C11.0065 1.57534 10.996 1.67899 10.9657 1.77764C10.9354 1.87629 10.886 1.96801 10.8202 2.04756L4.50309 9.69256L4.50073 9.69413C4.35706 9.86673 4.17674 10.0052 3.97287 10.0993C3.76901 10.1935 3.54672 10.2411 3.32216 10.2386C3.09397 10.2357 2.8694 10.1812 2.66529 10.0792C2.46118 9.9771 2.28282 9.83016 2.14359 9.64935L0.16516 7.10678C0.0990998 7.02563 0.0499122 6.93211 0.0204842 6.8317C-0.00894381 6.73129 -0.0180195 6.62601 -0.0062103 6.52204C0.00559892 6.41808 0.0380552 6.31752 0.0892538 6.22626C0.140452 6.13501 0.209362 6.0549 0.291939 5.99064C0.374515 5.92638 0.469096 5.87926 0.57013 5.85205C0.671163 5.82483 0.776615 5.81807 0.880297 5.83216C0.983978 5.84625 1.0838 5.88091 1.17391 5.9341C1.26401 5.9873 1.34259 6.05795 1.40502 6.14192L3.34102 8.63028L9.60787 1.04656C9.67359 0.966999 9.75434 0.901162 9.84551 0.852811C9.93668 0.80446 10.0365 0.774542 10.1392 0.764765C10.2419 0.754988 10.3456 0.765544 10.4442 0.79583C10.5429 0.826116 10.6354 0.875538 10.7149 0.941275Z" fill="#22C55E"/>
</g>
<defs>
<clipPath id="clip0_107_370">
<rect width="11" height="11" fill="white"/>
</clipPath>
</defs>
</svg>
