<svg width="35" height="28" viewBox="0 0 35 28" fill="none" xmlns="http://www.w3.org/2000/svg">
<path fill-rule="evenodd" clip-rule="evenodd" d="M15.0041 3.99784e-08C13.6211 -0.000123616 12.2532 0.286611 10.9867 0.842086C9.72015 1.39756 8.58262 2.2097 7.64597 3.22718C6.70931 4.24466 5.99388 5.44536 5.54489 6.75342C5.09589 8.06147 4.9231 9.44843 5.03743 10.8267C3.23492 11.6713 1.77427 13.1052 0.896558 14.8918C0.0188427 16.6784 -0.223468 18.7109 0.20962 20.6537C0.642708 22.5966 1.72531 24.3338 3.27873 25.5784C4.83215 26.8231 6.76353 27.5009 8.75409 27.5H27.5041C29.1628 27.5005 30.7748 26.9512 32.088 25.938C33.4013 24.9247 34.3416 23.5047 34.7618 21.9002C35.182 20.2956 35.0585 18.597 34.4105 17.0701C33.7626 15.5433 32.6268 14.2743 31.1808 13.4617C31.329 12.5107 31.2556 11.5384 30.9662 10.6205C30.6769 9.70255 30.1796 8.86384 29.5129 8.16973C28.8462 7.47562 28.0282 6.94485 27.1227 6.6188C26.2172 6.29275 25.2486 6.18022 24.2924 6.29C23.5504 4.4332 22.2688 2.84144 20.6131 1.72023C18.9574 0.59902 17.0037 -0.00017506 15.0041 3.99784e-08ZM18.3874 9.11667C18.153 8.88258 17.8353 8.7511 17.5041 8.7511C17.1728 8.7511 16.8551 8.88258 16.6208 9.11667L11.6208 14.1167C11.4979 14.2311 11.3994 14.3691 11.3311 14.5224C11.2628 14.6758 11.2261 14.8413 11.2231 15.0091C11.2201 15.177 11.251 15.3437 11.3139 15.4993C11.3768 15.655 11.4703 15.7964 11.589 15.9151C11.7077 16.0338 11.8491 16.1273 12.0048 16.1902C12.1604 16.2531 12.3271 16.2839 12.495 16.281C12.6628 16.278 12.8283 16.2413 12.9817 16.173C13.135 16.1046 13.273 16.0061 13.3874 15.8833L16.2541 13.0167V21.25C16.2541 21.5815 16.3858 21.8995 16.6202 22.1339C16.8546 22.3683 17.1726 22.5 17.5041 22.5C17.8356 22.5 18.1536 22.3683 18.388 22.1339C18.6224 21.8995 18.7541 21.5815 18.7541 21.25V13.0167L21.6208 15.8833C21.7352 16.0061 21.8732 16.1046 22.0265 16.173C22.1799 16.2413 22.3454 16.278 22.5132 16.281C22.6811 16.2839 22.8478 16.2531 23.0034 16.1902C23.1591 16.1273 23.3005 16.0338 23.4192 15.9151C23.5379 15.7964 23.6314 15.655 23.6943 15.4993C23.7572 15.3437 23.788 15.177 23.7851 15.0091C23.7821 14.8413 23.7454 14.6758 23.6771 14.5224C23.6087 14.3691 23.5102 14.2311 23.3874 14.1167L18.3874 9.11667Z" fill="url(#paint0_linear_45_369)"/>
<defs>
<linearGradient id="paint0_linear_45_369" x1="0" y1="13.75" x2="35.0065" y2="13.75" gradientUnits="userSpaceOnUse">
<stop stop-color="#5345E6"/>
<stop offset="1" stop-color="#8F34E9"/>
</linearGradient>
</defs>
</svg>
